<?xml version="1.0"?>
<svg xmlns="http://www.w3.org/2000/svg" xmlns:xlink="http://www.w3.org/1999/xlink" xmlns:svgjs="http://svgjs.com/svgjs" version="1.1" width="512" height="512" x="0" y="0" viewBox="0 0 512 512" style="enable-background:new 0 0 512 512" xml:space="preserve" class=""><g transform="matrix(1,0,0,1,0,0)">
<g xmlns="http://www.w3.org/2000/svg">
	<path style="" d="M256,0c-74.399,0-135,60.599-135,135c0,74.399,60.601,135,135,135s135-60.601,135-135   C391,60.599,330.399,0,256,0z" fill="#f79398" data-original="#00abe9" class=""/>
	<path style="" d="M478.599,398.599C438.1,338,370.6,302,297.7,302h-83.4c-72.9,0-140.4,36-180.899,96.599l-2.401,3.9   V512h450V402.499L478.599,398.599z" fill="#f79398" data-original="#00abe9" class=""/>
</g>
<g xmlns="http://www.w3.org/2000/svg">
	<path style="" d="M256,270V0c74.399,0,135,60.599,135,135C391,209.399,330.399,270,256,270z" fill="#ee6e73" data-original="#0095ff" class=""/>
	<path style="" d="M481,402.499V512H256V302h41.7c72.9,0,140.4,36,180.899,96.599L481,402.499z" fill="#ee6e73" data-original="#0095ff" class=""/>
</g>
<g xmlns="http://www.w3.org/2000/svg">
</g>
<g xmlns="http://www.w3.org/2000/svg">
</g>
<g xmlns="http://www.w3.org/2000/svg">
</g>
<g xmlns="http://www.w3.org/2000/svg">
</g>
<g xmlns="http://www.w3.org/2000/svg">
</g>
<g xmlns="http://www.w3.org/2000/svg">
</g>
<g xmlns="http://www.w3.org/2000/svg">
</g>
<g xmlns="http://www.w3.org/2000/svg">
</g>
<g xmlns="http://www.w3.org/2000/svg">
</g>
<g xmlns="http://www.w3.org/2000/svg">
</g>
<g xmlns="http://www.w3.org/2000/svg">
</g>
<g xmlns="http://www.w3.org/2000/svg">
</g>
<g xmlns="http://www.w3.org/2000/svg">
</g>
<g xmlns="http://www.w3.org/2000/svg">
</g>
<g xmlns="http://www.w3.org/2000/svg">
</g>
</g></svg>
